<?xml version="1.0" encoding="UTF-8" standalone="no"?>
<!-- Generator: Adobe Illustrator 19.0.0, SVG Export Plug-In . SVG Version: 6.00 Build 0)  -->

<svg
   xmlns:dc="http://purl.org/dc/elements/1.1/"
   xmlns:cc="http://creativecommons.org/ns#"
   xmlns:rdf="http://www.w3.org/1999/02/22-rdf-syntax-ns#"
   xmlns:svg="http://www.w3.org/2000/svg"
   xmlns="http://www.w3.org/2000/svg"
   xmlns:sodipodi="http://sodipodi.sourceforge.net/DTD/sodipodi-0.dtd"
   xmlns:inkscape="http://www.inkscape.org/namespaces/inkscape"
   version="1.1"
   id="Layer_1"
   x="0px"
   y="0px"
   viewBox="0 0 512 512"
   style="enable-background:new 0 0 512 512;"
   xml:space="preserve"
   sodipodi:docname="connect.svg"
   inkscape:version="0.92.4 (5da689c313, 2019-01-14)"><metadata
   id="metadata61"><rdf:RDF><cc:Work
       rdf:about=""><dc:format>image/svg+xml</dc:format><dc:type
         rdf:resource="http://purl.org/dc/dcmitype/StillImage" /><dc:title></dc:title></cc:Work></rdf:RDF></metadata><defs
   id="defs59" /><sodipodi:namedview
   pagecolor="#ffffff"
   bordercolor="#666666"
   borderopacity="1"
   objecttolerance="10"
   gridtolerance="10"
   guidetolerance="10"
   inkscape:pageopacity="0"
   inkscape:pageshadow="2"
   inkscape:window-width="3199"
   inkscape:window-height="1798"
   id="namedview57"
   showgrid="false"
   inkscape:zoom="0.4609375"
   inkscape:cx="-16.271186"
   inkscape:cy="256"
   inkscape:window-x="0"
   inkscape:window-y="0"
   inkscape:window-maximized="0"
   inkscape:current-layer="Layer_1" />


















<g
   id="g4830"
   transform="matrix(0.97656441,0,0,0.97656441,5.999511,5.9992669)"><g
     id="g6">
	<g
   id="g4">
		<path
   id="path2"
   d="m 297.448,279.808 c -5.533,-5.532 -14.505,-5.532 -20.038,0.001 l -31.873,31.873 -45.219,-45.219 31.873,-31.874 c 5.534,-5.534 5.534,-14.506 0,-20.039 -5.533,-5.534 -14.506,-5.534 -20.039,0 l -31.873,31.874 -25.485,-25.485 c -5.533,-5.534 -14.506,-5.534 -20.039,0 l -56.36,56.36 c -39.275,39.274 -41.73,101.64 -7.364,143.801 -0.46,0.358 -0.909,0.738 -1.332,1.161 l -65.548,65.55 c -5.534,5.533 -5.534,14.506 0,20.039 2.767,2.767 6.393,4.15 10.019,4.15 3.626,0 7.253,-1.384 10.019,-4.15 l 65.549,-65.549 c 0.423,-0.423 0.803,-0.872 1.161,-1.332 19.675,16.037 43.75,24.055 67.825,24.055 27.515,0 55.029,-10.473 75.976,-31.42 l 56.36,-56.36 c 5.534,-5.533 5.534,-14.506 0,-20.039 l -25.485,-25.485 31.873,-31.873 c 5.534,-5.533 5.534,-14.506 0,-20.039 z m -82.787,133.757 c -30.845,30.843 -81.029,30.843 -111.874,0 l -4.352,-4.352 c -30.844,-30.844 -30.844,-81.03 0,-111.874 l 46.34,-46.34 116.227,116.226 z"
   inkscape:connector-curvature="0" />
	</g>
</g><g
     id="g12">
	<g
   id="g10">
		<path
   id="path8"
   d="m 507.849,24.19 c 5.534,-5.533 5.534,-14.505 0,-20.039 -5.532,-5.534 -14.505,-5.534 -20.039,0 l -65.549,65.548 c -0.423,0.422 -0.801,0.87 -1.159,1.33 -19.112,-15.613 -42.816,-24.104 -67.827,-24.104 -28.7,0 -55.682,11.177 -75.976,31.471 l -56.36,56.36 c -5.534,5.534 -5.534,14.505 0,20.039 L 357.206,291.06 c 2.657,2.658 6.261,4.15 10.019,4.15 3.758,0 7.363,-1.493 10.019,-4.15 l 56.36,-56.36 c 20.294,-20.294 31.47,-47.276 31.47,-75.975 0,-25.011 -8.49,-48.715 -24.104,-67.827 0.459,-0.358 0.907,-0.737 1.33,-1.159 z m -94.284,190.472 -46.34,46.341 -116.227,-116.228 46.34,-46.341 c 14.942,-14.941 34.807,-23.17 55.937,-23.17 21.131,0 40.996,8.229 55.937,23.17 l 4.352,4.352 c 14.941,14.941 23.17,34.807 23.17,55.937 0.001,21.132 -8.228,40.997 -23.169,55.939 z"
   inkscape:connector-curvature="0" />
	</g>
</g><g
     id="g18">
	<g
   id="g16">
		<path
   id="path14"
   d="m 374.062,196.728 -58.79,-58.791 c -5.533,-5.534 -14.506,-5.534 -20.039,0 -5.534,5.534 -5.534,14.505 0,20.039 l 58.791,58.791 c 2.767,2.767 6.393,4.15 10.019,4.15 3.626,0 7.253,-1.383 10.019,-4.15 5.534,-5.534 5.534,-14.505 0,-20.039 z"
   inkscape:connector-curvature="0" />
	</g>
</g><g
     id="g24">
	<g
   id="g22">
		<path
   id="path20"
   d="M 218.149,352.641 159.358,293.85 c -5.533,-5.533 -14.506,-5.533 -20.039,0 -5.533,5.534 -5.533,14.506 0.001,20.039 l 58.791,58.791 c 2.767,2.767 6.393,4.15 10.019,4.15 3.626,0 7.253,-1.384 10.019,-4.15 5.534,-5.534 5.534,-14.507 0,-20.039 z"
   inkscape:connector-curvature="0" />
	</g>
</g><g
     id="g26">
</g><g
     id="g28">
</g><g
     id="g30">
</g><g
     id="g32">
</g><g
     id="g34">
</g><g
     id="g36">
</g><g
     id="g38">
</g><g
     id="g40">
</g><g
     id="g42">
</g><g
     id="g44">
</g><g
     id="g46">
</g><g
     id="g48">
</g><g
     id="g50">
</g><g
     id="g52">
</g><g
     id="g54">
</g></g>
</svg>